<?xml version="1.0" encoding="UTF-8"?>
<svg id="Layer_2" data-name="Layer 2" xmlns="http://www.w3.org/2000/svg" viewBox="0 0 355.18 272.53">
  <defs>
    <style>
      .cls-1 {
        fill: #d6971a;
      }

      .cls-2 {
        fill: #3b3f54;
      }

      .cls-3 {
        fill: #23293a;
      }
    </style>
  </defs>
  <g id="Layer_1-2" data-name="Layer 1">
    <g>
      <path class="cls-3" d="M308.46,0H46.72C20.92,0,0,19.48,0,43.51v198.86c0,16.65,14.51,30.16,32.39,30.16h290.4c17.88,0,32.39-13.51,32.39-30.16V43.51c0-24.03-20.92-43.51-46.72-43.51ZM159.82,100.01c.8-2.4,2.02-4.46,3.63-6.17,1.62-1.72,3.64-3.04,6.06-3.98,2.42-.95,5.27-1.42,8.52-1.42s5.94.42,8.27,1.24c2.33.83,4.25,2.04,5.78,3.64,1.52,1.6,2.65,3.58,3.39,5.91.75,2.34,1.12,5.02,1.12,8.04s-.4,5.55-1.2,7.93c-.79,2.39-2,4.45-3.61,6.18-1.62,1.72-3.64,3.06-6.08,4s-5.28,1.41-8.54,1.41-5.9-.42-8.23-1.25c-2.33-.85-4.26-2.07-5.8-3.67-1.53-1.6-2.67-3.56-3.41-5.91-.74-2.33-1.12-5-1.12-8s.41-5.54,1.22-7.95ZM304.54,249.65H50.64c-14.62,0-26.07-11.71-24.7-25.25L42.25,62.3c2.06-20.33,29.36-28.37,43.59-12.82l72.87,79.62c9.9,10.83,27.86,10.83,37.76,0l72.87-79.62c14.23-15.55,41.53-7.51,43.59,12.82l16.31,162.1c1.37,13.54-10.08,25.25-24.7,25.25Z"/>
      <path class="cls-2" d="M86.79,202.08c0,.64-.02,1.18-.06,1.62-.04.44-.1.83-.18,1.14-.08.32-.19.59-.32.82s-.34.49-.63.78c-.29.29-.86.67-1.69,1.12s-1.85.9-3.06,1.31c-1.21.42-2.58.77-4.13,1.05-1.55.28-3.22.42-5.03.42-3.52,0-6.7-.52-9.54-1.56-2.83-1.04-5.24-2.6-7.23-4.67-1.99-2.07-3.51-4.66-4.57-7.76-1.06-3.1-1.59-6.71-1.59-10.82s.58-7.92,1.75-11.17,2.79-5.98,4.89-8.19,4.6-3.89,7.53-5.03c2.93-1.14,6.15-1.72,9.67-1.72,1.43,0,2.81.11,4.13.34s2.55.53,3.68.9,2.14.79,3.04,1.28c.9.48,1.53.9,1.89,1.24.36.34.6.63.74.86s.24.52.32.88c.08.36.14.78.18,1.26.04.48.06,1.08.06,1.79,0,.76-.03,1.41-.08,1.94-.05.53-.15.97-.28,1.3-.13.33-.29.57-.48.72-.19.15-.4.23-.63.23-.4,0-.9-.22-1.51-.67s-1.4-.94-2.36-1.49c-.97-.55-2.12-1.04-3.46-1.49-1.34-.44-2.93-.67-4.79-.67-2.04,0-3.86.4-5.46,1.2-1.6.8-2.97,1.94-4.09,3.43-1.13,1.49-1.98,3.28-2.56,5.39-.58,2.11-.87,4.49-.87,7.13,0,2.9.31,5.41.93,7.53.62,2.12,1.51,3.87,2.66,5.24,1.15,1.37,2.54,2.4,4.17,3.07s3.46,1.01,5.5,1.01c1.85,0,3.46-.21,4.81-.63,1.35-.42,2.51-.88,3.48-1.39.97-.51,1.76-.96,2.38-1.37.62-.41,1.11-.61,1.45-.61.27,0,.48.05.64.15.16.1.29.3.4.61.11.3.19.73.24,1.28s.08,1.28.08,2.19Z"/>
      <path class="cls-1" d="M129.54,190.91c0,2.89-.4,5.54-1.2,7.92-.79,2.39-2,4.45-3.61,6.18-1.62,1.72-3.64,3.06-6.08,4-2.44.94-5.28,1.41-8.54,1.41s-5.9-.42-8.23-1.25c-2.33-.85-4.26-2.07-5.8-3.67-1.53-1.6-2.67-3.56-3.41-5.91-.74-2.33-1.12-5-1.12-8.01s.41-5.54,1.22-7.94c.8-2.4,2.02-4.46,3.63-6.17,1.62-1.72,3.64-3.05,6.06-3.98,2.42-.95,5.27-1.42,8.52-1.42s5.94.42,8.27,1.24,4.25,2.04,5.78,3.64c1.52,1.6,2.65,3.58,3.39,5.91.75,2.34,1.12,5.02,1.12,8.05Z"/>
      <path class="cls-2" d="M193.82,208.26c0,.25-.08.48-.24.67-.16.19-.42.35-.79.48-.37.13-.87.22-1.51.29s-1.44.1-2.42.1-1.83-.03-2.46-.1-1.15-.16-1.53-.29-.65-.29-.79-.48c-.15-.19-.22-.41-.22-.67v-20.16c0-1.14-.11-2.18-.34-3.13-.23-.94-.57-1.75-1.03-2.42-.46-.67-1.05-1.19-1.75-1.56-.7-.37-1.54-.55-2.52-.55-1.19,0-2.4.44-3.62,1.33-1.22.89-2.54,2.19-3.97,3.89v22.6c0,.25-.08.48-.24.67-.16.19-.43.35-.81.48s-.89.22-1.53.29-1.43.1-2.38.1-1.79-.03-2.42-.1-1.15-.16-1.53-.29c-.38-.13-.66-.29-.81-.48-.16-.19-.24-.41-.24-.67v-20.16c0-1.14-.11-2.18-.34-3.13-.23-.94-.56-1.75-1.01-2.42s-1.03-1.19-1.75-1.56-1.55-.55-2.5-.55c-1.22,0-2.44.44-3.66,1.33-1.22.89-2.53,2.19-3.93,3.89v22.6c0,.25-.08.48-.24.67-.16.19-.43.35-.81.48s-.89.22-1.53.29-1.44.1-2.42.1-1.79-.03-2.42-.1-1.15-.16-1.53-.29-.66-.29-.81-.48c-.16-.19-.24-.41-.24-.67v-34c0-.25.07-.48.2-.67.13-.19.37-.35.71-.48.34-.13.79-.22,1.33-.29.54-.06,1.22-.1,2.05-.1s1.55.03,2.11.1c.56.06.99.16,1.29.29.3.13.52.29.66.48.13.19.2.41.2.67v3.93c1.96-2.03,3.91-3.56,5.86-4.57,1.95-1.02,3.98-1.52,6.1-1.52,1.46,0,2.77.15,3.93.44,1.17.29,2.21.71,3.12,1.26.91.55,1.7,1.2,2.36,1.96.66.76,1.22,1.61,1.67,2.55,1.06-1.09,2.1-2.03,3.12-2.82,1.02-.79,2.03-1.43,3.02-1.92.99-.5,1.99-.86,2.98-1.11s2.01-.36,3.04-.36c2.36,0,4.34.38,5.96,1.14,1.62.76,2.92,1.8,3.91,3.11.99,1.31,1.7,2.84,2.13,4.59.42,1.75.63,3.61.63,5.57v21.76Z"/>
      <path class="cls-2" d="M239.31,190.76c0,3.02-.34,5.75-1.01,8.18-.68,2.43-1.66,4.49-2.96,6.19-1.3,1.7-2.91,3.01-4.85,3.93s-4.15,1.37-6.63,1.37c-1.03,0-1.98-.09-2.84-.29s-1.7-.48-2.5-.88c-.81-.39-1.61-.88-2.4-1.47-.79-.58-1.62-1.27-2.46-2.06v16.01c0,.25-.08.48-.24.69-.16.2-.43.37-.81.52-.38.14-.89.25-1.53.32-.64.08-1.44.11-2.42.11s-1.79-.04-2.42-.11c-.64-.08-1.15-.18-1.53-.32-.38-.14-.66-.31-.81-.52-.16-.2-.24-.43-.24-.69v-47.49c0-.25.07-.48.2-.67.13-.19.36-.35.7-.48.33-.13.77-.22,1.31-.29s1.22-.1,2.05-.1,1.46.03,2.01.1c.54.06.98.16,1.31.29.33.13.56.29.7.48.13.19.2.41.2.67v4c1.03-1.02,2.05-1.91,3.04-2.69.99-.77,2.01-1.42,3.04-1.94,1.03-.52,2.1-.91,3.2-1.16,1.1-.25,2.27-.38,3.52-.38,2.6,0,4.81.49,6.63,1.47,1.83.98,3.32,2.32,4.47,4.02,1.15,1.7,1.99,3.68,2.52,5.95.53,2.26.79,4.68.79,7.24ZM228.9,191.45c0-1.45-.11-2.84-.34-4.17-.23-1.33-.61-2.52-1.15-3.56-.54-1.04-1.26-1.87-2.15-2.5-.89-.62-1.99-.93-3.32-.93-.66,0-1.32.09-1.97.29-.65.19-1.31.5-1.99.93-.67.43-1.37.99-2.09,1.68-.71.69-1.47,1.54-2.26,2.55v11.21c1.4,1.7,2.74,3.02,4.01,3.94,1.27.93,2.59,1.39,3.97,1.39,1.3,0,2.4-.32,3.32-.95s1.66-1.47,2.25-2.5c.58-1.03,1.01-2.19,1.29-3.49s.42-2.59.42-3.89Z"/>
      <path class="cls-2" d="M267.96,204.9c0,1.12-.07,1.98-.22,2.57s-.34,1.02-.58,1.26c-.24.24-.59.46-1.05.65-.46.19-1.01.36-1.63.5-.62.14-1.3.25-2.03.32-.73.08-1.46.11-2.2.11-1.99,0-3.71-.24-5.17-.72-1.46-.48-2.66-1.23-3.62-2.23-.95-1-1.66-2.27-2.11-3.79-.45-1.52-.67-3.33-.67-5.41v-17.42h-4.25c-.5,0-.89-.3-1.15-.9-.27-.6-.4-1.59-.4-2.99,0-.74.03-1.36.1-1.87s.17-.91.3-1.2c.13-.29.3-.5.5-.63.2-.13.43-.19.7-.19h4.21v-7.59c0-.25.07-.48.22-.69.15-.2.41-.37.79-.51.38-.14.9-.24,1.55-.3.65-.06,1.45-.1,2.4-.1s1.79.03,2.44.1c.65.06,1.16.17,1.53.3.37.14.64.31.79.51.16.2.24.43.24.69v7.59h7.71c.26,0,.5.06.7.19.2.13.36.34.5.63.13.29.23.69.3,1.2s.1,1.13.1,1.87c0,1.4-.13,2.4-.4,2.99s-.65.9-1.15.9h-7.75v15.97c0,1.86.3,3.25.91,4.17.61.93,1.69,1.39,3.26,1.39.53,0,1.01-.04,1.43-.13.42-.09.8-.19,1.13-.31s.61-.22.83-.31c.23-.09.43-.13.62-.13.16,0,.31.04.46.13.15.09.26.27.34.53.08.27.15.63.22,1.09s.1,1.04.1,1.75Z"/>
      <path class="cls-2" d="M304.59,208.37c0,.36-.13.64-.4.84-.26.2-.68.35-1.25.44-.57.09-1.41.13-2.52.13-1.19,0-2.06-.04-2.6-.13-.54-.09-.93-.23-1.15-.44-.22-.2-.34-.48-.34-.84v-2.71c-1.46,1.5-3.12,2.67-4.99,3.51s-3.94,1.26-6.22,1.26c-1.88,0-3.61-.23-5.18-.71-1.58-.47-2.94-1.17-4.09-2.1-1.15-.93-2.05-2.08-2.68-3.45-.64-1.37-.95-2.97-.95-4.8,0-1.98.4-3.7,1.21-5.16s2.01-2.67,3.62-3.62c1.6-.95,3.6-1.66,5.98-2.11,2.38-.46,5.15-.69,8.3-.69h3.46v-2.06c0-1.07-.11-2-.34-2.8-.23-.8-.6-1.47-1.11-2-.52-.53-1.21-.93-2.07-1.18-.86-.25-1.93-.38-3.2-.38-1.67,0-3.16.18-4.47.53-1.31.36-2.47.75-3.48,1.18-1.01.43-1.85.83-2.52,1.18-.67.36-1.23.53-1.65.53-.29,0-.55-.09-.78-.27-.22-.18-.41-.43-.56-.76s-.26-.74-.34-1.22-.12-1.02-.12-1.6c0-.79.07-1.41.2-1.87s.38-.87.75-1.24c.37-.37,1.02-.77,1.95-1.22.93-.44,2.01-.86,3.26-1.24,1.25-.38,2.6-.69,4.07-.93s2.99-.36,4.55-.36c2.78,0,5.16.26,7.13.78,1.97.52,3.6,1.32,4.87,2.4,1.27,1.08,2.2,2.47,2.78,4.17.58,1.7.87,3.72.87,6.06v22.87ZM294.78,193.81h-3.81c-1.62,0-2.99.11-4.13.34s-2.07.57-2.78,1.03c-.71.46-1.24,1.01-1.57,1.66s-.5,1.39-.5,2.23c0,1.42.47,2.54,1.41,3.35.94.81,2.25,1.22,3.91,1.22,1.4,0,2.7-.34,3.87-1.03,1.18-.69,2.38-1.69,3.6-3.01v-5.79Z"/>
    </g>
  </g>
</svg>